<?xml version="1.0" encoding="UTF-8"?>
<!DOCTYPE svg PUBLIC "-//W3C//DTD SVG 1.1//EN" "http://www.w3.org/Graphics/SVG/1.1/DTD/svg11.dtd">
<!-- Creator: CorelDRAW 2020 (64-Bit) -->
<svg xmlns="http://www.w3.org/2000/svg" xml:space="preserve" width="210mm" height="297mm" version="1.1" style="shape-rendering:geometricPrecision; text-rendering:geometricPrecision; image-rendering:optimizeQuality; fill-rule:evenodd; clip-rule:evenodd"
viewBox="0 0 21000 29700"
 xmlns:xlink="http://www.w3.org/1999/xlink"
 xmlns:xodm="http://www.corel.com/coreldraw/odm/2003">
 <defs>
  <style type="text/css">
   <![CDATA[
    .str4 {stroke:#FEFEFE;stroke-width:20;stroke-miterlimit:22.9256;stroke-opacity:0.611765}
    .str5 {stroke:#FEFEFE;stroke-width:20;stroke-miterlimit:22.9256}
    .str2 {stroke:#523724;stroke-width:20;stroke-miterlimit:22.9256}
    .str1 {stroke:#624530;stroke-width:20;stroke-miterlimit:22.9256}
    .str3 {stroke:#957254;stroke-width:20;stroke-miterlimit:22.9256}
    .str0 {stroke:#AD9579;stroke-width:20;stroke-miterlimit:22.9256}
    .fil2 {fill:#523724}
    .fil1 {fill:#624530}
    .fil3 {fill:#957254}
    .fil0 {fill:#AD9579}
    .fil5 {fill:#FEFEFE;fill-rule:nonzero}
    .fil4 {fill:#FEFEFE;fill-rule:nonzero;fill-opacity:0.611765}
   ]]>
  </style>
 </defs>
 <g id="Слой_x0020_1">
  <metadata id="CorelCorpID_0Corel-Layer"/>
  <g id="_2012412579008">
   <path class="fil0 str0" d="M1785.71 9088.78c1233.06,-268.49 2466.12,-536.97 3699.18,-805.47 9.94,3520.2 19.89,7040.38 29.83,10560.57 -1252.94,-218.77 -2505.89,-437.53 -3758.84,-656.3 9.94,-3032.93 19.89,-6065.87 29.83,-9098.8z"/>
   <path class="fil0 str0" d="M16024.59 18864.42c-3503.29,-6.85 -7006.57,-13.69 -10509.87,-20.54 198.89,1262.9 397.77,2525.79 596.65,3788.68 3092.6,-59.67 6185.19,-119.32 9277.79,-178.99 211.82,-1196.38 423.62,-2392.77 635.43,-3589.15z"/>
   <path class="fil0 str0" d="M16015.63 8283.31c1223.11,248.61 2446.24,497.2 3669.35,745.81 19.89,3013.04 39.77,6026.09 59.66,9039.13 -1240.02,265.39 -2480.03,530.77 -3720.05,796.17 -2.98,-3527.04 -5.97,-7054.07 -8.96,-10581.11z"/>
   <path class="fil0 str0" d="M5484.89 8283.31c3510.25,0 7020.49,0 10530.74,0 -278.43,-1193.28 -556.87,-2386.57 -835.3,-3579.85 -2983.21,9.94 -5966.42,19.89 -8949.64,29.83 -248.6,1183.34 -497.19,2366.69 -745.8,3550.02z"/>
   <path class="fil1 str1" d="M5484.89 8283.31c656.31,696.08 1312.62,1392.17 1968.93,2088.26 2181.8,-11.52 4363.6,-23.02 6545.4,-34.53 672.13,-684.58 1344.28,-1369.15 2016.41,-2053.73 -3510.25,0 -7020.49,0 -10530.74,0z"/>
   <path class="fil1 str0" d="M5514.72 18843.88c619.03,-673.71 1238.05,-1347.41 1857.07,-2021.12 2217.53,0 4435.04,0 6652.56,0 676.93,678.37 1353.85,1356.75 2030.78,2035.12 -3513.47,-4.67 -7026.94,-9.33 -10540.41,-14z"/>
   <path class="fil2 str2" d="M5484.89 8283.31c656.31,696.09 1312.62,1392.16 1968.93,2088.25 -27.34,2150.4 -54.69,4300.8 -82.03,6451.2 -619.02,673.71 -1238.04,1347.42 -1857.07,2021.13 -9.94,-3520.2 -19.88,-7040.38 -29.83,-10560.58z"/>
   <path class="fil2 str2" d="M16015.63 8283.31c-674.95,687.45 -1349.9,1374.89 -2024.85,2062.34 11.19,2159.03 22.38,4318.08 33.58,6477.11 666.12,669.64 1332.23,1339.27 1998.35,2008.91 -2.35,-3516.12 -4.72,-7032.24 -7.08,-10548.36z"/>
   <path class="fil1 str1" d="M7453.82 10371.57c2178.98,-8.64 4357.97,-17.29 6536.96,-25.93 11.19,2159.04 22.38,4318.08 33.57,6477.12 -2217.52,0 -4435.03,0 -6652.56,0 27.35,-2150.4 54.69,-4300.79 82.03,-6451.19z"/>
   <path class="fil3 str3" d="M7453.82 10371.57c1036.72,0 2073.45,0 3110.17,0 9.95,2150.4 19.89,4300.79 29.84,6451.19 -1074.01,0 -2148.02,0 -3222.04,0 27.35,-2150.4 54.69,-4300.79 82.03,-6451.19z"/>
   <path class="fil3 str3" d="M10880.28 10370.62c1036.83,-8.32 2073.67,-16.65 3110.5,-24.98 9.94,2150.41 19.88,4300.8 29.83,6451.2 -1074.01,0 -2148.02,0 -3222.04,0 27.24,-2142.07 54.47,-4284.15 81.71,-6426.22z"/>
   <g>
    <path class="fil4 str4" d="M13101.95 9256.13l546.58 0 0 2378.91c0,414.22 -47.02,743.1 -140.04,986.69 -93.98,242.58 -262.7,441.06 -506.23,593.47 -244.55,152.48 -563.84,229.2 -960.8,229.2 -384.46,0 -699.95,-66.18 -944.43,-199.43 -245.5,-133.32 -420,-325.07 -524.5,-577.23 -104.51,-252.16 -157.24,-596.4 -157.24,-1032.7l0 -2378.91 546.52 0 0 2377.96c0,357.68 33.57,622.28 99.75,791.07 66.11,169.73 179.25,301.08 341.31,392.13 161.11,92.07 358.64,138.08 591.63,138.08 398.87,0 683.64,-91.06 853.38,-272.28 169.67,-182.17 254.07,-531.23 254.07,-1049l0 -2377.96z"/>
    <polygon class="fil4 str4" points="7670.27,13375.36 7670.27,9256.13 8230.24,9256.13 10391.44,12489.37 10391.44,9256.13 10914.99,9256.13 10969.08,12762.86 11494.8,13389.9 10355.02,13375.36 8193.75,10142.12 8193.75,13375.36 "/>
    <polygon class="fil4 str4" points="11729.03,17665.55 11729.03,14029.58 9623.95,13995.88 9191.73,13488.23 13633.31,13546.32 13633.31,14029.58 12275.54,14029.58 12275.54,17665.55 "/>
    <path class="fil4 str4" d="M7722.05 16327.63l255.96 -23.04c23.99,207.11 80.52,376.85 169.74,510.1 89.15,132.37 227.22,239.73 414.22,322.22 186.93,81.47 397.91,122.71 631.86,122.71 208.06,0 391.19,-30.71 550.39,-93.02 159.14,-62.31 277.1,-147.65 354.77,-255.96 77.66,-108.38 117.01,-226.34 117.01,-352.87 0,-128.49 -37.44,-240.67 -112.19,-337.57 -74.81,-95.88 -198.55,-176.4 -371.14,-242.58 -110.21,-42.19 -354.76,-109.26 -733.51,-200.38 -378.69,-91.05 -643.35,-176.4 -794.88,-256.99 -196.57,-103.55 -342.26,-232.04 -438.2,-384.45 -96.83,-152.48 -144.73,-324.12 -144.73,-513.02 0,-209.02 59.45,-403.69 177.34,-583.89 117.96,-181.22 289.6,-318.35 516.83,-412.32 226.27,-93.97 478.5,-140.99 755.6,-140.99 304.88,0 737.04,129.17 989.95,133.65 303.06,5.37 488.69,-37.23 717.68,-32 358.5,8.15 805.14,0.13 1014.15,25.48l-214.45 382.96c-283.48,-12.64 -964.88,34.11 -1312.85,10.47 -209.22,-14.21 -864.73,-7.75 -1181.17,-7.75 -329.82,0 -562.75,30.92 -713.26,151.66 -150.51,120.82 -226.34,266.57 -226.34,437.26 0,147.65 53.75,269.42 160.16,365.36 105.45,94.93 378.75,193.66 821.71,293.41 443.03,100.63 746.97,187.88 911.88,262.69 238.77,110.28 416.12,249.31 530.21,419.04 114.15,168.72 170.69,363.4 170.69,583.89 0,219.62 -62.31,424.82 -187.95,618.48 -125.57,193.66 -304.89,344.23 -539.79,451.59 -234.9,107.43 -498.61,161.11 -792.97,161.11 -372.02,0 -683.64,-54.63 -934.85,-163.01 -252.23,-108.31 -448.26,-271.73 -591.64,-489.98 -143.23,-217.99 37.44,-487.13 29.77,-762.26z"/>
   </g>
   <g>
    <path class="fil5 str5" d="M13326.49 9332.29l546.58 0 0 2378.91c0,414.22 -47.02,743.1 -140.04,986.7 -93.97,242.58 -262.69,441.06 -506.22,593.47 -244.55,152.48 -563.85,229.19 -960.81,229.19 -384.46,0 -699.95,-66.18 -944.43,-199.43 -245.5,-133.32 -419.99,-325.07 -524.5,-577.23 -104.51,-252.16 -157.23,-596.39 -157.23,-1032.7l0 -2378.91 546.51 0 0 2377.96c0,357.69 33.57,622.28 99.75,791.07 66.12,169.74 179.25,301.08 341.31,392.14 161.11,92.07 358.64,138.07 591.64,138.07 398.86,0 683.64,-91.05 853.38,-272.27 169.67,-182.18 254.06,-531.23 254.06,-1049.01l0 -2377.96z"/>
    <polygon class="fil5 str5" points="7894.81,13451.52 7894.81,9332.29 8454.78,9332.29 10615.99,12565.53 10615.99,9332.29 11139.54,9332.29 11193.62,12839.03 11719.35,13466.07 10579.56,13451.52 8418.3,10218.29 8418.3,13451.52 "/>
    <polygon class="fil5 str5" points="11953.57,17741.72 11953.57,14105.74 9848.5,14072.04 9416.27,13564.39 13857.85,13622.49 13857.85,14105.74 12500.09,14105.74 12500.09,17741.72 "/>
    <path class="fil5 str5" d="M7946.59 16403.79l255.97 -23.03c23.98,207.11 80.52,376.85 169.73,510.09 89.15,132.37 227.23,239.73 414.22,322.22 186.93,81.47 397.92,122.72 631.87,122.72 208.06,0 391.18,-30.72 550.39,-93.03 159.13,-62.3 277.09,-147.65 354.76,-255.96 77.67,-108.38 117.01,-226.34 117.01,-352.86 0,-128.49 -37.44,-240.68 -112.18,-337.58 -74.82,-95.87 -198.55,-176.39 -371.14,-242.57 -110.22,-42.2 -354.77,-109.27 -733.52,-200.39 -378.68,-91.05 -643.34,-176.39 -794.87,-256.98 -196.58,-103.56 -342.26,-232.05 -438.21,-384.46 -96.83,-152.48 -144.73,-324.12 -144.73,-513.02 0,-209.01 59.46,-403.69 177.35,-583.89 117.96,-181.22 289.6,-318.34 516.82,-412.32 226.27,-93.97 478.5,-140.99 755.6,-140.99 304.89,0 737.05,129.17 989.95,133.66 303.06,5.36 488.7,-37.24 717.69,-32.01 358.5,8.16 805.13,0.14 1014.14,25.48l-214.45 382.97c-283.48,-12.64 -964.88,34.11 -1312.85,10.46 -209.21,-14.2 -864.72,-7.75 -1181.16,-7.75 -329.83,0 -562.76,30.92 -713.27,151.67 -150.51,120.81 -226.34,266.56 -226.34,437.25 0,147.66 53.75,269.42 160.16,365.37 105.46,94.92 378.75,193.65 821.71,293.4 443.03,100.63 746.97,187.88 911.88,262.69 238.78,110.29 416.13,249.31 530.21,419.05 114.16,168.72 170.69,363.39 170.69,583.89 0,219.61 -62.31,424.82 -187.95,618.47 -125.57,193.66 -304.89,344.24 -539.79,451.6 -234.9,107.42 -498.61,161.1 -792.97,161.1 -372.02,0 -683.64,-54.63 -934.85,-163.01 -252.22,-108.31 -448.26,-271.73 -591.63,-489.98 -143.24,-217.98 37.44,-487.13 29.76,-762.26z"/>
   </g>
  </g>
 </g>
</svg>
